# xmcd CD database file
#
# Track frame offsets:
#	150
#	12285
#	56999
#	65846
#	96545
#	116055
#	159354
#	173126
#	194638
#	217879
#
# Disc length: 3136 seconds
#
# Revision: 0
# Processed by: cddbd v1.5.2PL0 Copyright (c) Steve Scherf et al.
# Submitted via: CDex 2.03
#
DISCID=950c3e0a
DTITLE=Itamar Borochov - Boomerang
DYEAR=2016
DGENRE=Jazz
TTITLE0=Tangerines
TTITLE1=Shimshon
TTITLE2=Eastern Lullaby
TTITLE3=Jones Street
TTITLE4=Adon Olam
TTITLE5=Jaffa Tune
TTITLE6=Avri's Tune
TTITLE7=Ca va bien
TTITLE8=Wanderer Song
TTITLE9=Prayer
EXTD=YEAR: 2016
EXTT0=
EXTT1=
EXTT2=
EXTT3=
EXTT4=
EXTT5=
EXTT6=
EXTT7=
EXTT8=
EXTT9=
PLAYORDER=
